<?xml version="1.0" standalone="no"?>
<!DOCTYPE svg PUBLIC "-//W3C//DTD SVG 20010904//EN"
 "http://www.w3.org/TR/2001/REC-SVG-20010904/DTD/svg10.dtd">
<svg version="1.0" xmlns="http://www.w3.org/2000/svg"
 width="932.000000pt" height="1280.000000pt" viewBox="0 0 932.000000 1280.000000"
 preserveAspectRatio="xMidYMid meet">
<metadata>
Created by potrace 1.15, written by Peter Selinger 2001-2017
</metadata>
<g transform="translate(0.000000,1280.000000) scale(0.100000,-0.100000)"
fill="#000000" stroke="none">
<path d="M4160 12794 c-736 -92 -1196 -187 -1237 -258 -17 -29 -76 -47 -181
-56 -289 -24 -653 -183 -808 -353 -92 -101 -125 -198 -173 -515 -57 -376 -75
-590 -76 -902 0 -312 6 -354 65 -486 136 -302 489 -542 930 -633 58 -12 148
-36 201 -53 85 -27 105 -30 180 -25 244 16 258 20 486 141 56 29 125 59 153
66 46 11 58 10 119 -10 62 -20 75 -21 127 -10 31 7 77 20 100 31 24 10 72 23
106 29 169 31 261 122 328 325 l24 70 27 -60 c104 -231 164 -465 270 -1035
l62 -335 0 -325 c1 -273 -6 -432 -41 -985 -23 -363 -46 -768 -52 -900 -16
-369 -19 -401 -38 -419 -16 -13 -22 -8 -77 57 -297 355 -507 493 -848 562
-538 107 -839 64 -1185 -167 -150 -101 -310 -241 -685 -601 l-165 -157 -143
70 c-221 107 -719 284 -1168 415 -227 66 -292 76 -321 50 -11 -10 -20 -22 -20
-26 0 -17 61 -39 281 -104 282 -83 315 -95 644 -225 149 -59 312 -122 364
-140 51 -19 102 -43 113 -54 42 -45 162 -236 209 -331 79 -162 123 -317 155
-540 l7 -50 28 110 c142 541 353 953 643 1253 273 282 604 435 911 419 164 -8
409 -72 550 -144 90 -46 141 -80 244 -167 47 -39 125 -100 173 -137 82 -61 97
-79 188 -213 94 -140 101 -154 151 -304 69 -212 101 -288 166 -407 75 -134 92
-158 279 -390 299 -371 427 -493 597 -570 91 -42 355 -101 557 -125 124 -15
436 -12 580 5 439 51 879 216 1141 427 115 93 170 171 150 214 -15 35 -49 38
-207 24 -297 -27 -521 11 -769 130 -752 361 -1408 1467 -1698 2865 -90 431
-121 730 -122 1150 0 318 8 437 41 598 8 38 14 109 14 158 0 77 3 92 21 110
46 46 133 -6 374 -227 183 -167 215 -194 238 -194 26 0 21 23 -30 149 -99 248
-184 398 -444 787 -209 314 -255 387 -342 544 -113 205 -163 260 -237 260 -48
0 -112 -73 -213 -242 -48 -81 -103 -167 -122 -192 -19 -25 -42 -63 -50 -83
-31 -74 -88 -113 -166 -113 -23 0 -92 12 -154 27 -62 14 -120 23 -130 19 -28
-10 -11 -48 64 -147 37 -49 76 -104 86 -123 l18 -33 -37 -74 c-21 -41 -52 -89
-69 -107 -48 -51 -196 -142 -230 -142 -8 0 -21 25 -31 63 -10 34 -64 181 -121
327 -88 227 -130 344 -160 447 -8 31 -129 140 -182 166 l-45 22 -20 -25 c-29
-35 -21 -110 41 -395 69 -321 78 -386 62 -499 -22 -151 -49 -216 -92 -216 -59
0 -162 237 -230 529 -36 155 -50 237 -89 511 -42 303 -80 438 -143 523 -37 48
-106 87 -154 87 -45 0 -130 -34 -203 -81 l-63 -40 6 -62 c3 -34 37 -172 76
-308 111 -395 143 -580 122 -724 -6 -38 -11 -114 -11 -167 0 -53 -5 -109 -11
-125 l-11 -28 -23 28 c-32 36 -90 223 -116 367 -11 63 -24 135 -30 160 -21 84
-28 130 -59 358 -37 276 -70 457 -111 592 -64 216 -210 467 -253 435 -79 -60
-114 -83 -153 -98 -25 -10 -47 -16 -49 -15 -11 12 -14 179 -4 217 26 98 174
200 390 270 110 36 301 81 345 81 59 1 146 28 173 53 46 44 130 74 357 126
260 60 514 104 717 126 320 33 455 14 856 -121 416 -140 567 -225 678 -380 27
-38 101 -186 183 -366 76 -167 200 -433 276 -593 182 -385 250 -533 291 -634
23 -56 58 -116 107 -180 95 -124 238 -333 527 -766 128 -192 371 -555 540
-805 388 -574 485 -726 619 -964 60 -105 133 -231 163 -281 269 -444 479 -965
602 -1495 43 -188 59 -279 86 -492 36 -283 92 -511 166 -679 48 -108 78 -214
99 -341 10 -63 7 -251 -4 -282 -6 -15 -27 -46 -45 -68 -19 -22 -37 -51 -41
-65 -9 -39 -197 -286 -279 -368 -113 -113 -209 -172 -390 -239 -624 -233
-1716 -299 -2666 -160 -273 39 -604 124 -658 167 -7 5 -14 8 -17 6 -2 -2 82
-81 187 -174 413 -367 504 -453 569 -533 81 -101 129 -189 163 -302 31 -104
54 -256 41 -269 -35 -34 -1316 -51 -1710 -23 -1053 75 -1649 230 -1912 499
-71 71 -77 94 -43 166 25 52 51 81 122 139 54 44 236 142 353 191 371 153 604
259 750 340 377 210 624 460 755 764 38 89 94 275 88 293 -2 5 -61 -63 -131
-151 -71 -87 -183 -216 -250 -285 -736 -767 -1617 -811 -2630 -132 -161 108
-242 141 -502 203 -194 47 -363 68 -510 63 -176 -7 -235 -39 -235 -127 0 -116
183 -311 532 -569 71 -52 128 -98 128 -102 0 -4 -16 -28 -36 -54 -52 -68 -175
-162 -303 -231 -349 -188 -399 -222 -464 -317 -74 -108 -70 -21 -64 -1550 4
-978 9 -1372 17 -1387 38 -71 185 61 355 319 95 145 122 194 306 550 l137 265
103 -3 c181 -4 472 -48 1011 -152 678 -131 669 -130 964 -130 416 0 880 46
1304 130 581 115 1245 354 1910 686 345 173 531 281 885 514 411 270 642 409
901 538 242 121 414 229 594 373 385 306 652 641 749 936 56 172 76 285 75
433 -1 158 -16 234 -75 388 -104 269 -143 427 -195 787 -49 333 -86 500 -176
790 -127 408 -294 784 -516 1157 -60 101 -137 235 -172 298 -90 164 -229 379
-590 915 -174 259 -493 734 -707 1056 -443 665 -429 638 -858 1539 -426 894
-456 941 -700 1066 -205 105 -562 239 -787 295 -81 20 -296 33 -378 23z
m-2100 -1801 c0 -16 9 -155 21 -310 18 -244 19 -289 7 -325 -18 -58 -39 -56
-60 7 -35 107 -50 391 -28 521 18 100 60 176 60 107z"/>
</g>
</svg>
